<svg aria-roledescription="er" role="graphics-document document" viewBox="0 0 505.046875 863.8359375" style="max-width: 505.047px; background-color: white;" xmlns:xlink="http://www.w3.org/1999/xlink" xmlns="http://www.w3.org/2000/svg" width="100%" id="my-svg"><style>#my-svg{font-family:"trebuchet ms",verdana,arial,sans-serif;font-size:16px;fill:#333;}#my-svg .error-icon{fill:#552222;}#my-svg .error-text{fill:#552222;stroke:#552222;}#my-svg .edge-thickness-normal{stroke-width:1px;}#my-svg .edge-thickness-thick{stroke-width:3.5px;}#my-svg .edge-pattern-solid{stroke-dasharray:0;}#my-svg .edge-thickness-invisible{stroke-width:0;fill:none;}#my-svg .edge-pattern-dashed{stroke-dasharray:3;}#my-svg .edge-pattern-dotted{stroke-dasharray:2;}#my-svg .marker{fill:#333333;stroke:#333333;}#my-svg .marker.cross{stroke:#333333;}#my-svg svg{font-family:"trebuchet ms",verdana,arial,sans-serif;font-size:16px;}#my-svg p{margin:0;}#my-svg .entityBox{fill:#ECECFF;stroke:#9370DB;}#my-svg .attributeBoxOdd{fill:#ffffff;stroke:#9370DB;}#my-svg .attributeBoxEven{fill:#f2f2f2;stroke:#9370DB;}#my-svg .relationshipLabelBox{fill:hsl(80, 100%, 96.2745098039%);opacity:0.7;background-color:hsl(80, 100%, 96.2745098039%);}#my-svg .relationshipLabelBox rect{opacity:0.5;}#my-svg .relationshipLine{stroke:#333333;}#my-svg .entityTitleText{text-anchor:middle;font-size:18px;fill:#333;}#my-svg #MD_PARENT_START{fill:#f5f5f5!important;stroke:#333333!important;stroke-width:1;}#my-svg #MD_PARENT_END{fill:#f5f5f5!important;stroke:#333333!important;stroke-width:1;}#my-svg :root{--mermaid-font-family:"trebuchet ms",verdana,arial,sans-serif;}</style><g/><defs><marker orient="auto" markerHeight="240" markerWidth="190" refY="7" refX="0" id="MD_PARENT_START"><path d="M 18,7 L9,13 L1,7 L9,1 Z"/></marker></defs><defs><marker orient="auto" markerHeight="28" markerWidth="20" refY="7" refX="19" id="MD_PARENT_END"><path d="M 18,7 L9,13 L1,7 L9,1 Z"/></marker></defs><defs><marker orient="auto" markerHeight="18" markerWidth="18" refY="9" refX="0" id="ONLY_ONE_START"><path d="M9,0 L9,18 M15,0 L15,18" fill="none" stroke="gray"/></marker></defs><defs><marker orient="auto" markerHeight="18" markerWidth="18" refY="9" refX="18" id="ONLY_ONE_END"><path d="M3,0 L3,18 M9,0 L9,18" fill="none" stroke="gray"/></marker></defs><defs><marker orient="auto" markerHeight="18" markerWidth="30" refY="9" refX="0" id="ZERO_OR_ONE_START"><circle r="6" cy="9" cx="21" fill="white" stroke="gray"/><path d="M9,0 L9,18" fill="none" stroke="gray"/></marker></defs><defs><marker orient="auto" markerHeight="18" markerWidth="30" refY="9" refX="30" id="ZERO_OR_ONE_END"><circle r="6" cy="9" cx="9" fill="white" stroke="gray"/><path d="M21,0 L21,18" fill="none" stroke="gray"/></marker></defs><defs><marker orient="auto" markerHeight="36" markerWidth="45" refY="18" refX="18" id="ONE_OR_MORE_START"><path d="M0,18 Q 18,0 36,18 Q 18,36 0,18 M42,9 L42,27" fill="none" stroke="gray"/></marker></defs><defs><marker orient="auto" markerHeight="36" markerWidth="45" refY="18" refX="27" id="ONE_OR_MORE_END"><path d="M3,9 L3,27 M9,18 Q27,0 45,18 Q27,36 9,18" fill="none" stroke="gray"/></marker></defs><defs><marker orient="auto" markerHeight="36" markerWidth="57" refY="18" refX="18" id="ZERO_OR_MORE_START"><circle r="6" cy="18" cx="48" fill="white" stroke="gray"/><path d="M0,18 Q18,0 36,18 Q18,36 0,18" fill="none" stroke="gray"/></marker></defs><defs><marker orient="auto" markerHeight="36" markerWidth="57" refY="18" refX="39" id="ZERO_OR_MORE_END"><circle r="6" cy="18" cx="9" fill="white" stroke="gray"/><path d="M21,18 Q39,0 57,18 Q39,36 21,18" fill="none" stroke="gray"/></marker></defs><path style="stroke: gray; fill: none;" marker-start="url(#ONLY_ONE_START)" marker-end="url(#ZERO_OR_MORE_END)" d="M85.43,176.459L85.43,184.792C85.43,193.126,85.43,209.792,88.682,226.467C91.934,243.141,98.439,259.823,101.692,268.164L104.944,276.505" class="er relationshipLine"/><path style="stroke: gray; fill: none;" marker-start="url(#ONLY_ONE_START)" marker-end="url(#ZERO_OR_MORE_END)" d="M307.04,165.413L297.815,175.587C288.59,185.762,270.141,206.11,252.444,225.629C234.747,245.147,217.803,263.835,209.331,273.179L200.859,282.524" class="er relationshipLine"/><path style="stroke: gray; fill: none;" marker-start="url(#ONLY_ONE_START)" marker-end="url(#ZERO_OR_MORE_END)" d="M394.15,165.413L398.117,175.587C402.084,185.762,410.019,206.11,413.986,224.618C417.953,243.126,417.953,259.792,417.953,268.126L417.953,276.459" class="er relationshipLine"/><path style="stroke: gray; fill: none;" marker-start="url(#ONLY_ONE_START)" marker-end="url(#ZERO_OR_MORE_END)" d="M135.43,432.872L135.43,441.213C135.43,449.554,135.43,466.236,142.855,487.699C150.28,509.162,165.13,535.405,172.555,548.527L179.98,561.649" class="er relationshipLine"/><path style="stroke: gray; fill: none;" marker-start="url(#ONLY_ONE_START)" marker-end="url(#ZERO_OR_MORE_END)" d="M417.953,432.918L417.953,441.251C417.953,449.585,417.953,466.251,402.195,494.058C386.436,521.865,354.919,560.812,339.161,580.286L323.402,599.76" class="er relationshipLine"/><g transform="translate(20,20 )" id="entity-User-818c511a-4a32-5484-ba70-875d765a9175"><rect height="156.45898818969727" width="130.859375" y="0" x="0" class="er entityBox"/><text style="dominant-baseline: middle; text-anchor: middle; font-size: 12px;" transform="translate(65.4296875,12)" y="0" x="0" id="text-entity-User-818c511a-4a32-5484-ba70-875d765a9175" class="er entityLabel">User</text><rect height="22.091797828674316" width="51.640625" y="24" x="0" class="er attributeBoxOdd"/><text style="dominant-baseline: middle; font-size: 10.2px;" transform="translate(5,35.04589891433716)" y="0" x="0" id="text-entity-User-818c511a-4a32-5484-ba70-875d765a9175-attr-1-type" class="er entityLabel">string</text><rect height="22.091797828674316" width="57.65625" y="24" x="51.640625" class="er attributeBoxOdd"/><text style="dominant-baseline: middle; font-size: 10.2px;" transform="translate(56.640625,35.04589891433716)" y="0" x="0" id="text-entity-User-818c511a-4a32-5484-ba70-875d765a9175-attr-1-name" class="er entityLabel">id</text><rect height="22.091797828674316" width="21.5625" y="24" x="109.296875" class="er attributeBoxOdd"/><text style="dominant-baseline: middle; font-size: 10.2px;" transform="translate(114.296875,35.04589891433716)" y="0" x="0" id="text-entity-User-818c511a-4a32-5484-ba70-875d765a9175-attr-1-key" class="er entityLabel">PK</text><rect height="22.091797828674316" width="51.640625" y="46.091797828674316" x="0" class="er attributeBoxEven"/><text style="dominant-baseline: middle; font-size: 10.2px;" transform="translate(5,57.137696743011475)" y="0" x="0" id="text-entity-User-818c511a-4a32-5484-ba70-875d765a9175-attr-2-type" class="er entityLabel">string</text><rect height="22.091797828674316" width="57.65625" y="46.091797828674316" x="51.640625" class="er attributeBoxEven"/><text style="dominant-baseline: middle; font-size: 10.2px;" transform="translate(56.640625,57.137696743011475)" y="0" x="0" id="text-entity-User-818c511a-4a32-5484-ba70-875d765a9175-attr-2-name" class="er entityLabel">email</text><rect height="22.091797828674316" width="21.5625" y="46.091797828674316" x="109.296875" class="er attributeBoxEven"/><text style="dominant-baseline: middle; font-size: 10.2px;" transform="translate(114.296875,57.137696743011475)" y="0" x="0" id="text-entity-User-818c511a-4a32-5484-ba70-875d765a9175-attr-2-key" class="er entityLabel"/><rect height="22.091797828674316" width="51.640625" y="68.18359565734863" x="0" class="er attributeBoxOdd"/><text style="dominant-baseline: middle; font-size: 10.2px;" transform="translate(5,79.22949457168579)" y="0" x="0" id="text-entity-User-818c511a-4a32-5484-ba70-875d765a9175-attr-3-type" class="er entityLabel">string</text><rect height="22.091797828674316" width="57.65625" y="68.18359565734863" x="51.640625" class="er attributeBoxOdd"/><text style="dominant-baseline: middle; font-size: 10.2px;" transform="translate(56.640625,79.22949457168579)" y="0" x="0" id="text-entity-User-818c511a-4a32-5484-ba70-875d765a9175-attr-3-name" class="er entityLabel">name</text><rect height="22.091797828674316" width="21.5625" y="68.18359565734863" x="109.296875" class="er attributeBoxOdd"/><text style="dominant-baseline: middle; font-size: 10.2px;" transform="translate(114.296875,79.22949457168579)" y="0" x="0" id="text-entity-User-818c511a-4a32-5484-ba70-875d765a9175-attr-3-key" class="er entityLabel"/><rect height="22.091797828674316" width="51.640625" y="90.27539348602295" x="0" class="er attributeBoxEven"/><text style="dominant-baseline: middle; font-size: 10.2px;" transform="translate(5,101.32129240036011)" y="0" x="0" id="text-entity-User-818c511a-4a32-5484-ba70-875d765a9175-attr-4-type" class="er entityLabel">string</text><rect height="22.091797828674316" width="57.65625" y="90.27539348602295" x="51.640625" class="er attributeBoxEven"/><text style="dominant-baseline: middle; font-size: 10.2px;" transform="translate(56.640625,101.32129240036011)" y="0" x="0" id="text-entity-User-818c511a-4a32-5484-ba70-875d765a9175-attr-4-name" class="er entityLabel">password</text><rect height="22.091797828674316" width="21.5625" y="90.27539348602295" x="109.296875" class="er attributeBoxEven"/><text style="dominant-baseline: middle; font-size: 10.2px;" transform="translate(114.296875,101.32129240036011)" y="0" x="0" id="text-entity-User-818c511a-4a32-5484-ba70-875d765a9175-attr-4-key" class="er entityLabel"/><rect height="22" width="51.640625" y="112.36719131469727" x="0" class="er attributeBoxOdd"/><text style="dominant-baseline: middle; font-size: 10.2px;" transform="translate(5,123.36719131469727)" y="0" x="0" id="text-entity-User-818c511a-4a32-5484-ba70-875d765a9175-attr-5-type" class="er entityLabel">datetime</text><rect height="22" width="57.65625" y="112.36719131469727" x="51.640625" class="er attributeBoxOdd"/><text style="dominant-baseline: middle; font-size: 10.2px;" transform="translate(56.640625,123.36719131469727)" y="0" x="0" id="text-entity-User-818c511a-4a32-5484-ba70-875d765a9175-attr-5-name" class="er entityLabel">createdAt</text><rect height="22" width="21.5625" y="112.36719131469727" x="109.296875" class="er attributeBoxOdd"/><text style="dominant-baseline: middle; font-size: 10.2px;" transform="translate(114.296875,123.36719131469727)" y="0" x="0" id="text-entity-User-818c511a-4a32-5484-ba70-875d765a9175-attr-5-key" class="er entityLabel"/><rect height="22.091796875" width="51.640625" y="134.36719131469727" x="0" class="er attributeBoxEven"/><text style="dominant-baseline: middle; font-size: 10.2px;" transform="translate(5,145.41308975219727)" y="0" x="0" id="text-entity-User-818c511a-4a32-5484-ba70-875d765a9175-attr-6-type" class="er entityLabel">datetime</text><rect height="22.091796875" width="57.65625" y="134.36719131469727" x="51.640625" class="er attributeBoxEven"/><text style="dominant-baseline: middle; font-size: 10.2px;" transform="translate(56.640625,145.41308975219727)" y="0" x="0" id="text-entity-User-818c511a-4a32-5484-ba70-875d765a9175-attr-6-name" class="er entityLabel">updatedAt</text><rect height="22.091796875" width="21.5625" y="134.36719131469727" x="109.296875" class="er attributeBoxEven"/><text style="dominant-baseline: middle; font-size: 10.2px;" transform="translate(114.296875,145.41308975219727)" y="0" x="0" id="text-entity-User-818c511a-4a32-5484-ba70-875d765a9175-attr-6-key" class="er entityLabel"/></g><g transform="translate(300.859375,31.0458984375 )" id="entity-Group-c50154b9-939c-5428-9ef3-b05ac51a8a04"><rect height="134.36719036102295" width="134.1875" y="0" x="0" class="er entityBox"/><text style="dominant-baseline: middle; text-anchor: middle; font-size: 12px;" transform="translate(67.09375,12)" y="0" x="0" id="text-entity-Group-c50154b9-939c-5428-9ef3-b05ac51a8a04" class="er entityLabel">Group</text><rect height="22.091797828674316" width="51.640625" y="24" x="0" class="er attributeBoxOdd"/><text style="dominant-baseline: middle; font-size: 10.2px;" transform="translate(5,35.04589891433716)" y="0" x="0" id="text-entity-Group-c50154b9-939c-5428-9ef3-b05ac51a8a04-attr-1-type" class="er entityLabel">string</text><rect height="22.091797828674316" width="60.984375" y="24" x="51.640625" class="er attributeBoxOdd"/><text style="dominant-baseline: middle; font-size: 10.2px;" transform="translate(56.640625,35.04589891433716)" y="0" x="0" id="text-entity-Group-c50154b9-939c-5428-9ef3-b05ac51a8a04-attr-1-name" class="er entityLabel">id</text><rect height="22.091797828674316" width="21.5625" y="24" x="112.625" class="er attributeBoxOdd"/><text style="dominant-baseline: middle; font-size: 10.2px;" transform="translate(117.625,35.04589891433716)" y="0" x="0" id="text-entity-Group-c50154b9-939c-5428-9ef3-b05ac51a8a04-attr-1-key" class="er entityLabel">PK</text><rect height="22.091797828674316" width="51.640625" y="46.091797828674316" x="0" class="er attributeBoxEven"/><text style="dominant-baseline: middle; font-size: 10.2px;" transform="translate(5,57.137696743011475)" y="0" x="0" id="text-entity-Group-c50154b9-939c-5428-9ef3-b05ac51a8a04-attr-2-type" class="er entityLabel">string</text><rect height="22.091797828674316" width="60.984375" y="46.091797828674316" x="51.640625" class="er attributeBoxEven"/><text style="dominant-baseline: middle; font-size: 10.2px;" transform="translate(56.640625,57.137696743011475)" y="0" x="0" id="text-entity-Group-c50154b9-939c-5428-9ef3-b05ac51a8a04-attr-2-name" class="er entityLabel">name</text><rect height="22.091797828674316" width="21.5625" y="46.091797828674316" x="112.625" class="er attributeBoxEven"/><text style="dominant-baseline: middle; font-size: 10.2px;" transform="translate(117.625,57.137696743011475)" y="0" x="0" id="text-entity-Group-c50154b9-939c-5428-9ef3-b05ac51a8a04-attr-2-key" class="er entityLabel"/><rect height="22.091797828674316" width="51.640625" y="68.18359565734863" x="0" class="er attributeBoxOdd"/><text style="dominant-baseline: middle; font-size: 10.2px;" transform="translate(5,79.22949457168579)" y="0" x="0" id="text-entity-Group-c50154b9-939c-5428-9ef3-b05ac51a8a04-attr-3-type" class="er entityLabel">string</text><rect height="22.091797828674316" width="60.984375" y="68.18359565734863" x="51.640625" class="er attributeBoxOdd"/><text style="dominant-baseline: middle; font-size: 10.2px;" transform="translate(56.640625,79.22949457168579)" y="0" x="0" id="text-entity-Group-c50154b9-939c-5428-9ef3-b05ac51a8a04-attr-3-name" class="er entityLabel">description</text><rect height="22.091797828674316" width="21.5625" y="68.18359565734863" x="112.625" class="er attributeBoxOdd"/><text style="dominant-baseline: middle; font-size: 10.2px;" transform="translate(117.625,79.22949457168579)" y="0" x="0" id="text-entity-Group-c50154b9-939c-5428-9ef3-b05ac51a8a04-attr-3-key" class="er entityLabel"/><rect height="22" width="51.640625" y="90.27539348602295" x="0" class="er attributeBoxEven"/><text style="dominant-baseline: middle; font-size: 10.2px;" transform="translate(5,101.27539348602295)" y="0" x="0" id="text-entity-Group-c50154b9-939c-5428-9ef3-b05ac51a8a04-attr-4-type" class="er entityLabel">datetime</text><rect height="22" width="60.984375" y="90.27539348602295" x="51.640625" class="er attributeBoxEven"/><text style="dominant-baseline: middle; font-size: 10.2px;" transform="translate(56.640625,101.27539348602295)" y="0" x="0" id="text-entity-Group-c50154b9-939c-5428-9ef3-b05ac51a8a04-attr-4-name" class="er entityLabel">createdAt</text><rect height="22" width="21.5625" y="90.27539348602295" x="112.625" class="er attributeBoxEven"/><text style="dominant-baseline: middle; font-size: 10.2px;" transform="translate(117.625,101.27539348602295)" y="0" x="0" id="text-entity-Group-c50154b9-939c-5428-9ef3-b05ac51a8a04-attr-4-key" class="er entityLabel"/><rect height="22.091796875" width="51.640625" y="112.27539348602295" x="0" class="er attributeBoxOdd"/><text style="dominant-baseline: middle; font-size: 10.2px;" transform="translate(5,123.32129192352295)" y="0" x="0" id="text-entity-Group-c50154b9-939c-5428-9ef3-b05ac51a8a04-attr-5-type" class="er entityLabel">datetime</text><rect height="22.091796875" width="60.984375" y="112.27539348602295" x="51.640625" class="er attributeBoxOdd"/><text style="dominant-baseline: middle; font-size: 10.2px;" transform="translate(56.640625,123.32129192352295)" y="0" x="0" id="text-entity-Group-c50154b9-939c-5428-9ef3-b05ac51a8a04-attr-5-name" class="er entityLabel">updatedAt</text><rect height="22.091796875" width="21.5625" y="112.27539348602295" x="112.625" class="er attributeBoxOdd"/><text style="dominant-baseline: middle; font-size: 10.2px;" transform="translate(117.625,123.32129192352295)" y="0" x="0" id="text-entity-Group-c50154b9-939c-5428-9ef3-b05ac51a8a04-attr-5-key" class="er entityLabel"/></g><g transform="translate(70,276.5048828125 )" id="entity-GroupMember-e6732ff0-414c-51bb-a385-c77dfc0e3959"><rect height="156.36719036102295" width="130.859375" y="0" x="0" class="er entityBox"/><text style="dominant-baseline: middle; text-anchor: middle; font-size: 12px;" transform="translate(65.4296875,12)" y="0" x="0" id="text-entity-GroupMember-e6732ff0-414c-51bb-a385-c77dfc0e3959" class="er entityLabel">GroupMember</text><rect height="22.091797828674316" width="51.640625" y="24" x="0" class="er attributeBoxOdd"/><text style="dominant-baseline: middle; font-size: 10.2px;" transform="translate(5,35.04589891433716)" y="0" x="0" id="text-entity-GroupMember-e6732ff0-414c-51bb-a385-c77dfc0e3959-attr-1-type" class="er entityLabel">string</text><rect height="22.091797828674316" width="57.65625" y="24" x="51.640625" class="er attributeBoxOdd"/><text style="dominant-baseline: middle; font-size: 10.2px;" transform="translate(56.640625,35.04589891433716)" y="0" x="0" id="text-entity-GroupMember-e6732ff0-414c-51bb-a385-c77dfc0e3959-attr-1-name" class="er entityLabel">id</text><rect height="22.091797828674316" width="21.5625" y="24" x="109.296875" class="er attributeBoxOdd"/><text style="dominant-baseline: middle; font-size: 10.2px;" transform="translate(114.296875,35.04589891433716)" y="0" x="0" id="text-entity-GroupMember-e6732ff0-414c-51bb-a385-c77dfc0e3959-attr-1-key" class="er entityLabel">PK</text><rect height="22.091797828674316" width="51.640625" y="46.091797828674316" x="0" class="er attributeBoxEven"/><text style="dominant-baseline: middle; font-size: 10.2px;" transform="translate(5,57.137696743011475)" y="0" x="0" id="text-entity-GroupMember-e6732ff0-414c-51bb-a385-c77dfc0e3959-attr-2-type" class="er entityLabel">string</text><rect height="22.091797828674316" width="57.65625" y="46.091797828674316" x="51.640625" class="er attributeBoxEven"/><text style="dominant-baseline: middle; font-size: 10.2px;" transform="translate(56.640625,57.137696743011475)" y="0" x="0" id="text-entity-GroupMember-e6732ff0-414c-51bb-a385-c77dfc0e3959-attr-2-name" class="er entityLabel">groupId</text><rect height="22.091797828674316" width="21.5625" y="46.091797828674316" x="109.296875" class="er attributeBoxEven"/><text style="dominant-baseline: middle; font-size: 10.2px;" transform="translate(114.296875,57.137696743011475)" y="0" x="0" id="text-entity-GroupMember-e6732ff0-414c-51bb-a385-c77dfc0e3959-attr-2-key" class="er entityLabel">FK</text><rect height="22.091797828674316" width="51.640625" y="68.18359565734863" x="0" class="er attributeBoxOdd"/><text style="dominant-baseline: middle; font-size: 10.2px;" transform="translate(5,79.22949457168579)" y="0" x="0" id="text-entity-GroupMember-e6732ff0-414c-51bb-a385-c77dfc0e3959-attr-3-type" class="er entityLabel">string</text><rect height="22.091797828674316" width="57.65625" y="68.18359565734863" x="51.640625" class="er attributeBoxOdd"/><text style="dominant-baseline: middle; font-size: 10.2px;" transform="translate(56.640625,79.22949457168579)" y="0" x="0" id="text-entity-GroupMember-e6732ff0-414c-51bb-a385-c77dfc0e3959-attr-3-name" class="er entityLabel">userId</text><rect height="22.091797828674316" width="21.5625" y="68.18359565734863" x="109.296875" class="er attributeBoxOdd"/><text style="dominant-baseline: middle; font-size: 10.2px;" transform="translate(114.296875,79.22949457168579)" y="0" x="0" id="text-entity-GroupMember-e6732ff0-414c-51bb-a385-c77dfc0e3959-attr-3-key" class="er entityLabel">FK</text><rect height="22" width="51.640625" y="90.27539348602295" x="0" class="er attributeBoxEven"/><text style="dominant-baseline: middle; font-size: 10.2px;" transform="translate(5,101.27539348602295)" y="0" x="0" id="text-entity-GroupMember-e6732ff0-414c-51bb-a385-c77dfc0e3959-attr-4-type" class="er entityLabel">enum</text><rect height="22" width="57.65625" y="90.27539348602295" x="51.640625" class="er attributeBoxEven"/><text style="dominant-baseline: middle; font-size: 10.2px;" transform="translate(56.640625,101.27539348602295)" y="0" x="0" id="text-entity-GroupMember-e6732ff0-414c-51bb-a385-c77dfc0e3959-attr-4-name" class="er entityLabel">role</text><rect height="22" width="21.5625" y="90.27539348602295" x="109.296875" class="er attributeBoxEven"/><text style="dominant-baseline: middle; font-size: 10.2px;" transform="translate(114.296875,101.27539348602295)" y="0" x="0" id="text-entity-GroupMember-e6732ff0-414c-51bb-a385-c77dfc0e3959-attr-4-key" class="er entityLabel"/><rect height="22" width="51.640625" y="112.27539348602295" x="0" class="er attributeBoxOdd"/><text style="dominant-baseline: middle; font-size: 10.2px;" transform="translate(5,123.27539348602295)" y="0" x="0" id="text-entity-GroupMember-e6732ff0-414c-51bb-a385-c77dfc0e3959-attr-5-type" class="er entityLabel">datetime</text><rect height="22" width="57.65625" y="112.27539348602295" x="51.640625" class="er attributeBoxOdd"/><text style="dominant-baseline: middle; font-size: 10.2px;" transform="translate(56.640625,123.27539348602295)" y="0" x="0" id="text-entity-GroupMember-e6732ff0-414c-51bb-a385-c77dfc0e3959-attr-5-name" class="er entityLabel">createdAt</text><rect height="22" width="21.5625" y="112.27539348602295" x="109.296875" class="er attributeBoxOdd"/><text style="dominant-baseline: middle; font-size: 10.2px;" transform="translate(114.296875,123.27539348602295)" y="0" x="0" id="text-entity-GroupMember-e6732ff0-414c-51bb-a385-c77dfc0e3959-attr-5-key" class="er entityLabel"/><rect height="22.091796875" width="51.640625" y="134.27539348602295" x="0" class="er attributeBoxEven"/><text style="dominant-baseline: middle; font-size: 10.2px;" transform="translate(5,145.32129192352295)" y="0" x="0" id="text-entity-GroupMember-e6732ff0-414c-51bb-a385-c77dfc0e3959-attr-6-type" class="er entityLabel">datetime</text><rect height="22.091796875" width="57.65625" y="134.27539348602295" x="51.640625" class="er attributeBoxEven"/><text style="dominant-baseline: middle; font-size: 10.2px;" transform="translate(56.640625,145.32129192352295)" y="0" x="0" id="text-entity-GroupMember-e6732ff0-414c-51bb-a385-c77dfc0e3959-attr-6-name" class="er entityLabel">updatedAt</text><rect height="22.091796875" width="21.5625" y="134.27539348602295" x="109.296875" class="er attributeBoxEven"/><text style="dominant-baseline: middle; font-size: 10.2px;" transform="translate(114.296875,145.32129192352295)" y="0" x="0" id="text-entity-GroupMember-e6732ff0-414c-51bb-a385-c77dfc0e3959-attr-6-key" class="er entityLabel"/></g><g transform="translate(350.859375,276.458984375 )" id="entity-Album-b9589993-b491-5d7e-87fc-48d96c0ab68f"><rect height="156.45898818969727" width="134.1875" y="0" x="0" class="er entityBox"/><text style="dominant-baseline: middle; text-anchor: middle; font-size: 12px;" transform="translate(67.09375,12)" y="0" x="0" id="text-entity-Album-b9589993-b491-5d7e-87fc-48d96c0ab68f" class="er entityLabel">Album</text><rect height="22.091797828674316" width="51.640625" y="24" x="0" class="er attributeBoxOdd"/><text style="dominant-baseline: middle; font-size: 10.2px;" transform="translate(5,35.04589891433716)" y="0" x="0" id="text-entity-Album-b9589993-b491-5d7e-87fc-48d96c0ab68f-attr-1-type" class="er entityLabel">string</text><rect height="22.091797828674316" width="60.984375" y="24" x="51.640625" class="er attributeBoxOdd"/><text style="dominant-baseline: middle; font-size: 10.2px;" transform="translate(56.640625,35.04589891433716)" y="0" x="0" id="text-entity-Album-b9589993-b491-5d7e-87fc-48d96c0ab68f-attr-1-name" class="er entityLabel">id</text><rect height="22.091797828674316" width="21.5625" y="24" x="112.625" class="er attributeBoxOdd"/><text style="dominant-baseline: middle; font-size: 10.2px;" transform="translate(117.625,35.04589891433716)" y="0" x="0" id="text-entity-Album-b9589993-b491-5d7e-87fc-48d96c0ab68f-attr-1-key" class="er entityLabel">PK</text><rect height="22.091797828674316" width="51.640625" y="46.091797828674316" x="0" class="er attributeBoxEven"/><text style="dominant-baseline: middle; font-size: 10.2px;" transform="translate(5,57.137696743011475)" y="0" x="0" id="text-entity-Album-b9589993-b491-5d7e-87fc-48d96c0ab68f-attr-2-type" class="er entityLabel">string</text><rect height="22.091797828674316" width="60.984375" y="46.091797828674316" x="51.640625" class="er attributeBoxEven"/><text style="dominant-baseline: middle; font-size: 10.2px;" transform="translate(56.640625,57.137696743011475)" y="0" x="0" id="text-entity-Album-b9589993-b491-5d7e-87fc-48d96c0ab68f-attr-2-name" class="er entityLabel">title</text><rect height="22.091797828674316" width="21.5625" y="46.091797828674316" x="112.625" class="er attributeBoxEven"/><text style="dominant-baseline: middle; font-size: 10.2px;" transform="translate(117.625,57.137696743011475)" y="0" x="0" id="text-entity-Album-b9589993-b491-5d7e-87fc-48d96c0ab68f-attr-2-key" class="er entityLabel"/><rect height="22.091797828674316" width="51.640625" y="68.18359565734863" x="0" class="er attributeBoxOdd"/><text style="dominant-baseline: middle; font-size: 10.2px;" transform="translate(5,79.22949457168579)" y="0" x="0" id="text-entity-Album-b9589993-b491-5d7e-87fc-48d96c0ab68f-attr-3-type" class="er entityLabel">string</text><rect height="22.091797828674316" width="60.984375" y="68.18359565734863" x="51.640625" class="er attributeBoxOdd"/><text style="dominant-baseline: middle; font-size: 10.2px;" transform="translate(56.640625,79.22949457168579)" y="0" x="0" id="text-entity-Album-b9589993-b491-5d7e-87fc-48d96c0ab68f-attr-3-name" class="er entityLabel">description</text><rect height="22.091797828674316" width="21.5625" y="68.18359565734863" x="112.625" class="er attributeBoxOdd"/><text style="dominant-baseline: middle; font-size: 10.2px;" transform="translate(117.625,79.22949457168579)" y="0" x="0" id="text-entity-Album-b9589993-b491-5d7e-87fc-48d96c0ab68f-attr-3-key" class="er entityLabel"/><rect height="22.091797828674316" width="51.640625" y="90.27539348602295" x="0" class="er attributeBoxEven"/><text style="dominant-baseline: middle; font-size: 10.2px;" transform="translate(5,101.32129240036011)" y="0" x="0" id="text-entity-Album-b9589993-b491-5d7e-87fc-48d96c0ab68f-attr-4-type" class="er entityLabel">string</text><rect height="22.091797828674316" width="60.984375" y="90.27539348602295" x="51.640625" class="er attributeBoxEven"/><text style="dominant-baseline: middle; font-size: 10.2px;" transform="translate(56.640625,101.32129240036011)" y="0" x="0" id="text-entity-Album-b9589993-b491-5d7e-87fc-48d96c0ab68f-attr-4-name" class="er entityLabel">groupId</text><rect height="22.091797828674316" width="21.5625" y="90.27539348602295" x="112.625" class="er attributeBoxEven"/><text style="dominant-baseline: middle; font-size: 10.2px;" transform="translate(117.625,101.32129240036011)" y="0" x="0" id="text-entity-Album-b9589993-b491-5d7e-87fc-48d96c0ab68f-attr-4-key" class="er entityLabel">FK</text><rect height="22" width="51.640625" y="112.36719131469727" x="0" class="er attributeBoxOdd"/><text style="dominant-baseline: middle; font-size: 10.2px;" transform="translate(5,123.36719131469727)" y="0" x="0" id="text-entity-Album-b9589993-b491-5d7e-87fc-48d96c0ab68f-attr-5-type" class="er entityLabel">datetime</text><rect height="22" width="60.984375" y="112.36719131469727" x="51.640625" class="er attributeBoxOdd"/><text style="dominant-baseline: middle; font-size: 10.2px;" transform="translate(56.640625,123.36719131469727)" y="0" x="0" id="text-entity-Album-b9589993-b491-5d7e-87fc-48d96c0ab68f-attr-5-name" class="er entityLabel">createdAt</text><rect height="22" width="21.5625" y="112.36719131469727" x="112.625" class="er attributeBoxOdd"/><text style="dominant-baseline: middle; font-size: 10.2px;" transform="translate(117.625,123.36719131469727)" y="0" x="0" id="text-entity-Album-b9589993-b491-5d7e-87fc-48d96c0ab68f-attr-5-key" class="er entityLabel"/><rect height="22.091796875" width="51.640625" y="134.36719131469727" x="0" class="er attributeBoxEven"/><text style="dominant-baseline: middle; font-size: 10.2px;" transform="translate(5,145.41308975219727)" y="0" x="0" id="text-entity-Album-b9589993-b491-5d7e-87fc-48d96c0ab68f-attr-6-type" class="er entityLabel">datetime</text><rect height="22.091796875" width="60.984375" y="134.36719131469727" x="51.640625" class="er attributeBoxEven"/><text style="dominant-baseline: middle; font-size: 10.2px;" transform="translate(56.640625,145.41308975219727)" y="0" x="0" id="text-entity-Album-b9589993-b491-5d7e-87fc-48d96c0ab68f-attr-6-name" class="er entityLabel">updatedAt</text><rect height="22.091796875" width="21.5625" y="134.36719131469727" x="112.625" class="er attributeBoxEven"/><text style="dominant-baseline: middle; font-size: 10.2px;" transform="translate(117.625,145.41308975219727)" y="0" x="0" id="text-entity-Album-b9589993-b491-5d7e-87fc-48d96c0ab68f-attr-6-key" class="er entityLabel"/></g><g transform="translate(179.98046875,532.91796875 )" id="entity-Photo-3dbe787e-c345-53b6-8b90-9020690543b3"><rect height="310.91797637939453" width="143.421875" y="0" x="0" class="er entityBox"/><text style="dominant-baseline: middle; text-anchor: middle; font-size: 12px;" transform="translate(71.7109375,12)" y="0" x="0" id="text-entity-Photo-3dbe787e-c345-53b6-8b90-9020690543b3" class="er entityLabel">Photo</text><rect height="22.091797828674316" width="51.640625" y="24" x="0" class="er attributeBoxOdd"/><text style="dominant-baseline: middle; font-size: 10.2px;" transform="translate(5,35.04589891433716)" y="0" x="0" id="text-entity-Photo-3dbe787e-c345-53b6-8b90-9020690543b3-attr-1-type" class="er entityLabel">string</text><rect height="22.091797828674316" width="70.21875" y="24" x="51.640625" class="er attributeBoxOdd"/><text style="dominant-baseline: middle; font-size: 10.2px;" transform="translate(56.640625,35.04589891433716)" y="0" x="0" id="text-entity-Photo-3dbe787e-c345-53b6-8b90-9020690543b3-attr-1-name" class="er entityLabel">id</text><rect height="22.091797828674316" width="21.5625" y="24" x="121.859375" class="er attributeBoxOdd"/><text style="dominant-baseline: middle; font-size: 10.2px;" transform="translate(126.859375,35.04589891433716)" y="0" x="0" id="text-entity-Photo-3dbe787e-c345-53b6-8b90-9020690543b3-attr-1-key" class="er entityLabel">PK</text><rect height="22.091797828674316" width="51.640625" y="46.091797828674316" x="0" class="er attributeBoxEven"/><text style="dominant-baseline: middle; font-size: 10.2px;" transform="translate(5,57.137696743011475)" y="0" x="0" id="text-entity-Photo-3dbe787e-c345-53b6-8b90-9020690543b3-attr-2-type" class="er entityLabel">string</text><rect height="22.091797828674316" width="70.21875" y="46.091797828674316" x="51.640625" class="er attributeBoxEven"/><text style="dominant-baseline: middle; font-size: 10.2px;" transform="translate(56.640625,57.137696743011475)" y="0" x="0" id="text-entity-Photo-3dbe787e-c345-53b6-8b90-9020690543b3-attr-2-name" class="er entityLabel">title</text><rect height="22.091797828674316" width="21.5625" y="46.091797828674316" x="121.859375" class="er attributeBoxEven"/><text style="dominant-baseline: middle; font-size: 10.2px;" transform="translate(126.859375,57.137696743011475)" y="0" x="0" id="text-entity-Photo-3dbe787e-c345-53b6-8b90-9020690543b3-attr-2-key" class="er entityLabel"/><rect height="22.091797828674316" width="51.640625" y="68.18359565734863" x="0" class="er attributeBoxOdd"/><text style="dominant-baseline: middle; font-size: 10.2px;" transform="translate(5,79.22949457168579)" y="0" x="0" id="text-entity-Photo-3dbe787e-c345-53b6-8b90-9020690543b3-attr-3-type" class="er entityLabel">string</text><rect height="22.091797828674316" width="70.21875" y="68.18359565734863" x="51.640625" class="er attributeBoxOdd"/><text style="dominant-baseline: middle; font-size: 10.2px;" transform="translate(56.640625,79.22949457168579)" y="0" x="0" id="text-entity-Photo-3dbe787e-c345-53b6-8b90-9020690543b3-attr-3-name" class="er entityLabel">description</text><rect height="22.091797828674316" width="21.5625" y="68.18359565734863" x="121.859375" class="er attributeBoxOdd"/><text style="dominant-baseline: middle; font-size: 10.2px;" transform="translate(126.859375,79.22949457168579)" y="0" x="0" id="text-entity-Photo-3dbe787e-c345-53b6-8b90-9020690543b3-attr-3-key" class="er entityLabel"/><rect height="22.091797828674316" width="51.640625" y="90.27539348602295" x="0" class="er attributeBoxEven"/><text style="dominant-baseline: middle; font-size: 10.2px;" transform="translate(5,101.32129240036011)" y="0" x="0" id="text-entity-Photo-3dbe787e-c345-53b6-8b90-9020690543b3-attr-4-type" class="er entityLabel">string</text><rect height="22.091797828674316" width="70.21875" y="90.27539348602295" x="51.640625" class="er attributeBoxEven"/><text style="dominant-baseline: middle; font-size: 10.2px;" transform="translate(56.640625,101.32129240036011)" y="0" x="0" id="text-entity-Photo-3dbe787e-c345-53b6-8b90-9020690543b3-attr-4-name" class="er entityLabel">filename</text><rect height="22.091797828674316" width="21.5625" y="90.27539348602295" x="121.859375" class="er attributeBoxEven"/><text style="dominant-baseline: middle; font-size: 10.2px;" transform="translate(126.859375,101.32129240036011)" y="0" x="0" id="text-entity-Photo-3dbe787e-c345-53b6-8b90-9020690543b3-attr-4-key" class="er entityLabel"/><rect height="22.091797828674316" width="51.640625" y="112.36719131469727" x="0" class="er attributeBoxOdd"/><text style="dominant-baseline: middle; font-size: 10.2px;" transform="translate(5,123.41309022903442)" y="0" x="0" id="text-entity-Photo-3dbe787e-c345-53b6-8b90-9020690543b3-attr-5-type" class="er entityLabel">string</text><rect height="22.091797828674316" width="70.21875" y="112.36719131469727" x="51.640625" class="er attributeBoxOdd"/><text style="dominant-baseline: middle; font-size: 10.2px;" transform="translate(56.640625,123.41309022903442)" y="0" x="0" id="text-entity-Photo-3dbe787e-c345-53b6-8b90-9020690543b3-attr-5-name" class="er entityLabel">originalName</text><rect height="22.091797828674316" width="21.5625" y="112.36719131469727" x="121.859375" class="er attributeBoxOdd"/><text style="dominant-baseline: middle; font-size: 10.2px;" transform="translate(126.859375,123.41309022903442)" y="0" x="0" id="text-entity-Photo-3dbe787e-c345-53b6-8b90-9020690543b3-attr-5-key" class="er entityLabel"/><rect height="22.091797828674316" width="51.640625" y="134.45898914337158" x="0" class="er attributeBoxEven"/><text style="dominant-baseline: middle; font-size: 10.2px;" transform="translate(5,145.50488805770874)" y="0" x="0" id="text-entity-Photo-3dbe787e-c345-53b6-8b90-9020690543b3-attr-6-type" class="er entityLabel">string</text><rect height="22.091797828674316" width="70.21875" y="134.45898914337158" x="51.640625" class="er attributeBoxEven"/><text style="dominant-baseline: middle; font-size: 10.2px;" transform="translate(56.640625,145.50488805770874)" y="0" x="0" id="text-entity-Photo-3dbe787e-c345-53b6-8b90-9020690543b3-attr-6-name" class="er entityLabel">mimeType</text><rect height="22.091797828674316" width="21.5625" y="134.45898914337158" x="121.859375" class="er attributeBoxEven"/><text style="dominant-baseline: middle; font-size: 10.2px;" transform="translate(126.859375,145.50488805770874)" y="0" x="0" id="text-entity-Photo-3dbe787e-c345-53b6-8b90-9020690543b3-attr-6-key" class="er entityLabel"/><rect height="22" width="51.640625" y="156.5507869720459" x="0" class="er attributeBoxOdd"/><text style="dominant-baseline: middle; font-size: 10.2px;" transform="translate(5,167.5507869720459)" y="0" x="0" id="text-entity-Photo-3dbe787e-c345-53b6-8b90-9020690543b3-attr-7-type" class="er entityLabel">int</text><rect height="22" width="70.21875" y="156.5507869720459" x="51.640625" class="er attributeBoxOdd"/><text style="dominant-baseline: middle; font-size: 10.2px;" transform="translate(56.640625,167.5507869720459)" y="0" x="0" id="text-entity-Photo-3dbe787e-c345-53b6-8b90-9020690543b3-attr-7-name" class="er entityLabel">size</text><rect height="22" width="21.5625" y="156.5507869720459" x="121.859375" class="er attributeBoxOdd"/><text style="dominant-baseline: middle; font-size: 10.2px;" transform="translate(126.859375,167.5507869720459)" y="0" x="0" id="text-entity-Photo-3dbe787e-c345-53b6-8b90-9020690543b3-attr-7-key" class="er entityLabel"/><rect height="22" width="51.640625" y="178.5507869720459" x="0" class="er attributeBoxEven"/><text style="dominant-baseline: middle; font-size: 10.2px;" transform="translate(5,189.5507869720459)" y="0" x="0" id="text-entity-Photo-3dbe787e-c345-53b6-8b90-9020690543b3-attr-8-type" class="er entityLabel">int</text><rect height="22" width="70.21875" y="178.5507869720459" x="51.640625" class="er attributeBoxEven"/><text style="dominant-baseline: middle; font-size: 10.2px;" transform="translate(56.640625,189.5507869720459)" y="0" x="0" id="text-entity-Photo-3dbe787e-c345-53b6-8b90-9020690543b3-attr-8-name" class="er entityLabel">width</text><rect height="22" width="21.5625" y="178.5507869720459" x="121.859375" class="er attributeBoxEven"/><text style="dominant-baseline: middle; font-size: 10.2px;" transform="translate(126.859375,189.5507869720459)" y="0" x="0" id="text-entity-Photo-3dbe787e-c345-53b6-8b90-9020690543b3-attr-8-key" class="er entityLabel"/><rect height="22.091796875" width="51.640625" y="200.5507869720459" x="0" class="er attributeBoxOdd"/><text style="dominant-baseline: middle; font-size: 10.2px;" transform="translate(5,211.5966854095459)" y="0" x="0" id="text-entity-Photo-3dbe787e-c345-53b6-8b90-9020690543b3-attr-9-type" class="er entityLabel">int</text><rect height="22.091796875" width="70.21875" y="200.5507869720459" x="51.640625" class="er attributeBoxOdd"/><text style="dominant-baseline: middle; font-size: 10.2px;" transform="translate(56.640625,211.5966854095459)" y="0" x="0" id="text-entity-Photo-3dbe787e-c345-53b6-8b90-9020690543b3-attr-9-name" class="er entityLabel">height</text><rect height="22.091796875" width="21.5625" y="200.5507869720459" x="121.859375" class="er attributeBoxOdd"/><text style="dominant-baseline: middle; font-size: 10.2px;" transform="translate(126.859375,211.5966854095459)" y="0" x="0" id="text-entity-Photo-3dbe787e-c345-53b6-8b90-9020690543b3-attr-9-key" class="er entityLabel"/><rect height="22.091797828674316" width="51.640625" y="222.6425838470459" x="0" class="er attributeBoxEven"/><text style="dominant-baseline: middle; font-size: 10.2px;" transform="translate(5,233.68848276138306)" y="0" x="0" id="text-entity-Photo-3dbe787e-c345-53b6-8b90-9020690543b3-attr-10-type" class="er entityLabel">json</text><rect height="22.091797828674316" width="70.21875" y="222.6425838470459" x="51.640625" class="er attributeBoxEven"/><text style="dominant-baseline: middle; font-size: 10.2px;" transform="translate(56.640625,233.68848276138306)" y="0" x="0" id="text-entity-Photo-3dbe787e-c345-53b6-8b90-9020690543b3-attr-10-name" class="er entityLabel">metadata</text><rect height="22.091797828674316" width="21.5625" y="222.6425838470459" x="121.859375" class="er attributeBoxEven"/><text style="dominant-baseline: middle; font-size: 10.2px;" transform="translate(126.859375,233.68848276138306)" y="0" x="0" id="text-entity-Photo-3dbe787e-c345-53b6-8b90-9020690543b3-attr-10-key" class="er entityLabel"/><rect height="22.091797828674316" width="51.640625" y="244.73438167572021" x="0" class="er attributeBoxOdd"/><text style="dominant-baseline: middle; font-size: 10.2px;" transform="translate(5,255.78028059005737)" y="0" x="0" id="text-entity-Photo-3dbe787e-c345-53b6-8b90-9020690543b3-attr-11-type" class="er entityLabel">string</text><rect height="22.091797828674316" width="70.21875" y="244.73438167572021" x="51.640625" class="er attributeBoxOdd"/><text style="dominant-baseline: middle; font-size: 10.2px;" transform="translate(56.640625,255.78028059005737)" y="0" x="0" id="text-entity-Photo-3dbe787e-c345-53b6-8b90-9020690543b3-attr-11-name" class="er entityLabel">uploaderId</text><rect height="22.091797828674316" width="21.5625" y="244.73438167572021" x="121.859375" class="er attributeBoxOdd"/><text style="dominant-baseline: middle; font-size: 10.2px;" transform="translate(126.859375,255.78028059005737)" y="0" x="0" id="text-entity-Photo-3dbe787e-c345-53b6-8b90-9020690543b3-attr-11-key" class="er entityLabel">FK</text><rect height="22" width="51.640625" y="266.82617950439453" x="0" class="er attributeBoxEven"/><text style="dominant-baseline: middle; font-size: 10.2px;" transform="translate(5,277.82617950439453)" y="0" x="0" id="text-entity-Photo-3dbe787e-c345-53b6-8b90-9020690543b3-attr-12-type" class="er entityLabel">datetime</text><rect height="22" width="70.21875" y="266.82617950439453" x="51.640625" class="er attributeBoxEven"/><text style="dominant-baseline: middle; font-size: 10.2px;" transform="translate(56.640625,277.82617950439453)" y="0" x="0" id="text-entity-Photo-3dbe787e-c345-53b6-8b90-9020690543b3-attr-12-name" class="er entityLabel">createdAt</text><rect height="22" width="21.5625" y="266.82617950439453" x="121.859375" class="er attributeBoxEven"/><text style="dominant-baseline: middle; font-size: 10.2px;" transform="translate(126.859375,277.82617950439453)" y="0" x="0" id="text-entity-Photo-3dbe787e-c345-53b6-8b90-9020690543b3-attr-12-key" class="er entityLabel"/><rect height="22.091796875" width="51.640625" y="288.82617950439453" x="0" class="er attributeBoxOdd"/><text style="dominant-baseline: middle; font-size: 10.2px;" transform="translate(5,299.87207794189453)" y="0" x="0" id="text-entity-Photo-3dbe787e-c345-53b6-8b90-9020690543b3-attr-13-type" class="er entityLabel">datetime</text><rect height="22.091796875" width="70.21875" y="288.82617950439453" x="51.640625" class="er attributeBoxOdd"/><text style="dominant-baseline: middle; font-size: 10.2px;" transform="translate(56.640625,299.87207794189453)" y="0" x="0" id="text-entity-Photo-3dbe787e-c345-53b6-8b90-9020690543b3-attr-13-name" class="er entityLabel">updatedAt</text><rect height="22.091796875" width="21.5625" y="288.82617950439453" x="121.859375" class="er attributeBoxOdd"/><text style="dominant-baseline: middle; font-size: 10.2px;" transform="translate(126.859375,299.87207794189453)" y="0" x="0" id="text-entity-Photo-3dbe787e-c345-53b6-8b90-9020690543b3-attr-13-key" class="er entityLabel"/></g><rect height="14" width="17.71875" y="220.68765258789062" x="80.06649780273438" class="er relationshipLabelBox"/><text style="text-anchor: middle; dominant-baseline: middle; font-size: 12px;" y="227.68765258789062" x="88.92587280273438" id="rel1" class="er relationshipLabel">has</text><rect height="14" width="17.71875" y="216.96849060058594" x="245.0901336669922" class="er relationshipLabelBox"/><text style="text-anchor: middle; dominant-baseline: middle; font-size: 12px;" y="223.96849060058594" x="253.9495086669922" id="rel2" class="er relationshipLabel">has</text><rect height="14" width="17.71875" y="212.55104064941406" x="403.9561767578125" class="er relationshipLabelBox"/><text style="text-anchor: middle; dominant-baseline: middle; font-size: 12px;" y="219.55104064941406" x="412.8155517578125" id="rel3" class="er relationshipLabel">has</text><rect height="14" width="41.078125" y="493.36151123046875" x="127.265380859375" class="er relationshipLabelBox"/><text style="text-anchor: middle; dominant-baseline: middle; font-size: 12px;" y="500.36151123046875" x="147.804443359375" id="rel4" class="er relationshipLabel">uploads</text><rect height="14" width="44.84375" y="515.4983520507812" x="361.3145446777344" class="er relationshipLabelBox"/><text style="text-anchor: middle; dominant-baseline: middle; font-size: 12px;" y="522.4983520507812" x="383.7364196777344" id="rel5" class="er relationshipLabel">contains</text></svg>